<?xml version="1.0" encoding="utf-8"?>
<!-- Uploaded to: SVG Repo, www.svgrepo.com, Generator: SVG Repo Mixer Tools -->
<svg width="800px" height="800px" viewBox="0 0 1024 1024" class="icon"  version="1.1" xmlns="http://www.w3.org/2000/svg"><path d="M503.53152 344.4224m-262.5024 0a262.5024 262.5024 0 1 0 525.0048 0 262.5024 262.5024 0 1 0-525.0048 0Z" fill="#F2FAFE" /><path d="M388.08576 886.35392v-79.5648h0.6144l54.40512 79.5648h17.37728V777.5232h-17.98144v78.49984h-0.6144L388.096 777.5232h-17.83808v108.83072H388.096z m102.26688 15.23712l52.8896-140.22656h-14.92992l-53.0432 140.22656h15.08352z m76.06272-15.23712l9.90208-27.2896h45.568l9.91232 27.2896h19.0464L609.24928 777.5232h-20.2752l-41.60512 108.83072h19.0464z m50.14528-41.92256h-34.90816l17.22368-47.69792h0.6144l17.07008 47.69792z" fill="#DFF1FB" /><path d="M279.42912 725.46304v-0.04096l-3.47136 0.04096C164.33152 725.46304 73.6256 636.68224 71.71072 526.4384L71.68 522.9056C71.68 411.0336 163.14368 320.33792 275.968 320.33792c102.912 0 188.04736 75.4688 202.20928 173.62944h4.47488v-1.36192c0-127.32416 103.04512-230.77888 230.94272-232.83712l3.8912-0.03072C847.17568 259.7376 952.32 364.00128 952.32 492.5952c0 128.6144-105.14432 232.86784-234.83392 232.86784l2.60096-0.03072v0.03072H279.43936z" fill="#DFF1FB" /></svg>